{"accessors":[{"bufferView":2,"byteOffset":0,"componentType":5126,"count":4320,"max":[1,1,1,1],"min":[0.006584956776350737,0.006584956776350737,0.006584956776350737,1],"name":"accessor_color_m0-PolyPaper20_-319728","type":"VEC4"},{"bufferView":0,"byteOffset":0,"componentType":5123,"count":6996,"max":[4319],"min":[0],"name":"accessor_indices_0_m0-PolyPaper20_-319728","type":"SCALAR"},{"bufferView":1,"byteOffset":51840,"componentType":5126,"count":4320,"max":[0.9999511,0.9998048,0.9991],"min":[-0.9999511,-0.999918,-0.9991],"name":"accessor_normal_m0-PolyPaper20_-319728","type":"VEC3"},{"bufferView":1,"byteOffset":0,"componentType":5126,"count":4320,"max":[0.9129954,1.803138,0.3605745],"min":[0.07293479,0.6420932,-0.5699552],"name":"accessor_position_m0-PolyPaper20_-319728","type":"VEC3"}],"asset":{"copyright":"Unknown","extras":{"GOOGLE_processor_version":294144208},"generator":"glTF 1-to-2 Upgrader for Google Blocks","version":"2.0"},"bufferViews":[{"buffer":0,"byteLength":13992,"byteOffset":0,"name":"ushortBufferView","target":34963},{"buffer":0,"byteLength":103680,"byteOffset":13992,"byteStride":12,"name":"vec3BufferView","target":34962},{"buffer":0,"byteLength":69120,"byteOffset":117672,"byteStride":16,"name":"vec4BufferView","target":34962}],"buffers":[{"byteLength":186792,"name":"model","uri":"data:application/octet-stream;base64,"}],"cameras":[{"perspective":{"yfov":0.7853981633974483,"znear":0.1000000014901161},"type":"perspective"}],"extensions":{"KHR_lights_punctual":{"lights":[{"color":[1,0.9333333333333333,0.8666666666666667],"intensity":0.25,"name":"headLight","type":"directional"},{"color":[1,0.9333333333333333,0.8666666666666667],"intensity":0.324999988079071,"name":"keyLight","type":"directional"}]}},"extensionsUsed":["GOOGLE_backgrounds","GOOGLE_camera_settings","KHR_lights_punctual"],"extras":{"GOOGLE_initial_camera_motion":{"motionPath":"FULL_ROTATION"},"GOOGLE_lighting_rig":{"disableShadows":false}},"materials":[{"alphaMode":"OPAQUE","doubleSided":false,"name":"BlocksPaper","pbrMetallicRoughness":{"baseColorFactor":[1,1,1,1],"metallicFactor":0,"roughnessFactor":0.6}},{"alphaMode":"BLEND","doubleSided":false,"name":"BlocksGlass","pbrMetallicRoughness":{"baseColorFactor":[0.2,0.2,1,0.3],"metallicFactor":1,"roughnessFactor":0.4}},{"alphaMode":"OPAQUE","doubleSided":true,"name":"BlocksGem","pbrMetallicRoughness":{"baseColorFactor":[1,0.4,1,1],"metallicFactor":0,"roughnessFactor":0.1}}],"meshes":[{"name":"mesh_m0-PolyPaper20_-319728","primitives":[{"attributes":{"COLOR_0":0,"NORMAL":2,"POSITION":3},"indices":1,"material":0,"mode":4}]}],"nodes":[{"mesh":0,"name":"node_MeshObject1617988096-PolyPaper20"},{"children":[2]},{"children":[3],"extras":{"isTransformNode":1},"translation":[0.5128163448818597,1.055528139069833,-0.06622132763993448]},{"children":[0],"translation":[-0.5128163448818597,-1.055528139069833,0.06622132763993448]},{"camera":0,"children":[5],"rotation":[-0.09643090060773223,0.7213819189635636,0.1025898274028619,0.6780741373285663],"translation":[3.117891788482666,1.813544631004333,-0.2276787310838699]},{"extensions":{"KHR_lights_punctual":{"light":0}},"extras":{"isHeadLight":1},"name":"headLightNode","translation":[-0.7927406478950457,0.3963703239475229,0.3963703239475229]},{"extensions":{"KHR_lights_punctual":{"light":1}},"extras":{"isKeyLight":1},"name":"keyLightNode","rotation":[-0.7505326882858236,-0.3752663441429118,0,0.5439447166468927],"scale":[0,0,0.8006680543739962],"translation":[-0.250588663025717,2.697156079478823,-0.8223480686385395]}],"scene":0,"scenes":[{"extensions":{"GOOGLE_backgrounds":{"color":[0.9333333333333333,0.9333333333333333,0.9333333333333333]},"GOOGLE_camera_settings":{}},"extras":{"GOOGLE_camera_index":{"cameraIndex":0,"nodeIndex":4},"GOOGLE_geometry_data":{"stats":{"centroid":[0.5500793913482792,1.09581997073083,-0.02168001426454322],"radius":0.7927406478950457,"stdev":0.3814965439296091},"visualCenterPoint":[0.5128163448818597,1.055528139069833,-0.06622132763993448]},"GOOGLE_hemi_light":{"groundColor":[0.9333333333333333,0.9333333333333333,0.9333333333333333]}},"name":"defaultScene","nodes":[1,4,6]}]}